<?xml version="1.0" encoding="UTF-8" standalone="no"?><!DOCTYPE svg PUBLIC "-//W3C//DTD SVG 1.1//EN" "http://www.w3.org/Graphics/SVG/1.1/DTD/svg11.dtd"><!-- Generated by graphviz version 2.40.1 (20161225.0304)
 --><!-- Title: Taskflow Pages: 1 --><svg xmlns="http://www.w3.org/2000/svg" xmlns:xlink="http://www.w3.org/1999/xlink" width="238pt" height="245pt" viewBox="0.00 0.00 238.00 244.80">
<g id="graph0" class="graph" transform="scale(1 1) rotate(0) translate(4 240.8)">
<title>Taskflow</title>
<polygon fill="#ffffff" stroke="transparent" points="-4,4 -4,-240.8 234,-240.8 234,4 -4,4"/>
<g id="clust1" class="cluster">
<title>cluster_p0x16fdfed00</title>
<polygon fill="none" stroke="#000000" points="8,-8 8,-228.8 222,-228.8 222,-8 8,-8"/>
<text text-anchor="middle" x="115" y="-212.2" font-family="Times,serif" font-size="14.00" fill="#000000">Taskflow: p0x16fdfeca0</text>
</g>
<!-- p0x108008030 -->
<g id="node1" class="node">
<title>p0x108008030</title>
<ellipse fill="none" stroke="#000000" cx="187" cy="-178" rx="27" ry="18"/>
<text text-anchor="middle" x="187" y="-173.8" font-family="Times,serif" font-size="14.00" fill="#000000">A</text>
</g>
<!-- p0x1080082e8 -->
<g id="node2" class="node">
<title>p0x1080082e8</title>
<ellipse fill="none" stroke="#000000" cx="115" cy="-106" rx="27" ry="18"/>
<text text-anchor="middle" x="115" y="-101.8" font-family="Times,serif" font-size="14.00" fill="#000000">B</text>
</g>
<!-- p0x108008030&#45;&gt;p0x1080082e8 -->
<g id="edge1" class="edge">
<title>p0x108008030-&gt;p0x1080082e8</title>
<path fill="none" stroke="#000000" d="M171.7307,-162.7307C161.803,-152.803 148.6847,-139.6847 137.5637,-128.5637"/>
<polygon fill="#000000" stroke="#000000" points="139.7933,-125.8436 130.2473,-121.2473 134.8436,-130.7933 139.7933,-125.8436"/>
</g>
<!-- p0x108008118 -->
<g id="node3" class="node">
<title>p0x108008118</title>
<ellipse fill="none" stroke="#000000" cx="187" cy="-106" rx="27" ry="18"/>
<text text-anchor="middle" x="187" y="-101.8" font-family="Times,serif" font-size="14.00" fill="#000000">C</text>
</g>
<!-- p0x108008030&#45;&gt;p0x108008118 -->
<g id="edge2" class="edge">
<title>p0x108008030-&gt;p0x108008118</title>
<path fill="none" stroke="#000000" d="M187,-159.8314C187,-152.131 187,-142.9743 187,-134.4166"/>
<polygon fill="#000000" stroke="#000000" points="190.5001,-134.4132 187,-124.4133 183.5001,-134.4133 190.5001,-134.4132"/>
</g>
<!-- p0x108008200 -->
<g id="node4" class="node">
<title>p0x108008200</title>
<ellipse fill="none" stroke="#000000" cx="151" cy="-34" rx="27" ry="18"/>
<text text-anchor="middle" x="151" y="-29.8" font-family="Times,serif" font-size="14.00" fill="#000000">D</text>
</g>
<!-- p0x1080082e8&#45;&gt;p0x108008200 -->
<g id="edge4" class="edge">
<title>p0x1080082e8-&gt;p0x108008200</title>
<path fill="none" stroke="#000000" d="M123.7146,-88.5708C127.9597,-80.0807 133.1536,-69.6929 137.8663,-60.2674"/>
<polygon fill="#000000" stroke="#000000" points="141.024,-61.7782 142.3657,-51.2687 134.763,-58.6477 141.024,-61.7782"/>
</g>
<!-- p0x108008118&#45;&gt;p0x108008200 -->
<g id="edge3" class="edge">
<title>p0x108008118-&gt;p0x108008200</title>
<path fill="none" stroke="#000000" d="M178.2854,-88.5708C174.0403,-80.0807 168.8464,-69.6929 164.1337,-60.2674"/>
<polygon fill="#000000" stroke="#000000" points="167.237,-58.6477 159.6343,-51.2687 160.976,-61.7782 167.237,-58.6477"/>
</g>
<!-- p0x110008030 -->
<g id="node5" class="node">
<title>p0x110008030</title>
<ellipse fill="none" stroke="#000000" cx="115" cy="-178" rx="27" ry="18"/>
<text text-anchor="middle" x="115" y="-173.8" font-family="Times,serif" font-size="14.00" fill="#000000">B1</text>
</g>
<!-- p0x110008200 -->
<g id="node6" class="node">
<title>p0x110008200</title>
<ellipse fill="none" stroke="#000000" cx="43" cy="-106" rx="27" ry="18"/>
<text text-anchor="middle" x="43" y="-101.8" font-family="Times,serif" font-size="14.00" fill="#000000">B3</text>
</g>
<!-- p0x110008030&#45;&gt;p0x110008200 -->
<g id="edge5" class="edge">
<title>p0x110008030-&gt;p0x110008200</title>
<path fill="none" stroke="#000000" d="M99.7307,-162.7307C89.803,-152.803 76.6847,-139.6847 65.5637,-128.5637"/>
<polygon fill="#000000" stroke="#000000" points="67.7933,-125.8436 58.2473,-121.2473 62.8436,-130.7933 67.7933,-125.8436"/>
</g>
<!-- p0x110008118 -->
<g id="node7" class="node">
<title>p0x110008118</title>
<ellipse fill="none" stroke="#000000" cx="43" cy="-178" rx="27" ry="18"/>
<text text-anchor="middle" x="43" y="-173.8" font-family="Times,serif" font-size="14.00" fill="#000000">B2</text>
</g>
<!-- p0x110008118&#45;&gt;p0x110008200 -->
<g id="edge6" class="edge">
<title>p0x110008118-&gt;p0x110008200</title>
<path fill="none" stroke="#000000" d="M43,-159.8314C43,-152.131 43,-142.9743 43,-134.4166"/>
<polygon fill="#000000" stroke="#000000" points="46.5001,-134.4132 43,-124.4133 39.5001,-134.4133 46.5001,-134.4132"/>
</g>
</g>
</svg>