<?xml version="1.0" encoding="UTF-8" standalone="no"?><!DOCTYPE svg PUBLIC "-//W3C//DTD SVG 1.1//EN" "http://www.w3.org/Graphics/SVG/1.1/DTD/svg11.dtd"><!-- Generated by graphviz version 2.40.1 (20161225.0304)
 --><!-- Title: Taskflow Pages: 1 --><svg xmlns="http://www.w3.org/2000/svg" xmlns:xlink="http://www.w3.org/1999/xlink" width="670pt" height="566pt" viewBox="0.00 0.00 670.00 565.60">
<g id="graph0" class="graph" transform="scale(1 1) rotate(0) translate(4 561.6)">
<title>Taskflow</title>
<polygon fill="#ffffff" stroke="transparent" points="-4,4 -4,-561.6 666,-561.6 666,4 -4,4"/>
<g id="clust1" class="cluster">
<title>cluster_p0x16fdfed00</title>
<polygon fill="none" stroke="#000000" points="8,-8 8,-549.6 654,-549.6 654,-8 8,-8"/>
<text text-anchor="middle" x="331" y="-533" font-family="Times,serif" font-size="14.00" fill="#000000">Taskflow: fibonacci</text>
</g>
<g id="clust2" class="cluster">
<title>cluster_p0x108008030</title>
<polygon fill="none" stroke="#0000ff" points="16,-16 16,-516.8 646,-516.8 646,-16 16,-16"/>
<text text-anchor="middle" x="331" y="-500.2" font-family="Times,serif" font-size="14.00" fill="#000000">Subflow: 5</text>
</g>
<g id="clust3" class="cluster">
<title>cluster_p0x110008030</title>
<polygon fill="none" stroke="#0000ff" points="252,-88 252,-484 638,-484 638,-88 252,-88"/>
<text text-anchor="middle" x="445" y="-467.4" font-family="Times,serif" font-size="14.00" fill="#000000">Subflow: 4</text>
</g>
<g id="clust4" class="cluster">
<title>cluster_p0x1100085a0</title>
<polygon fill="none" stroke="#0000ff" points="410,-160 410,-451.2 630,-451.2 630,-160 410,-160"/>
<text text-anchor="middle" x="520" y="-434.6" font-family="Times,serif" font-size="14.00" fill="#000000">Subflow: 3</text>
</g>
<g id="clust5" class="cluster">
<title>cluster_p0x110008940</title>
<polygon fill="none" stroke="#0000ff" points="480,-232 480,-418.4 622,-418.4 622,-232 480,-232"/>
<text text-anchor="middle" x="551" y="-401.8" font-family="Times,serif" font-size="14.00" fill="#000000">Subflow: 2</text>
</g>
<g id="clust6" class="cluster">
<title>cluster_p0x110008688</title>
<polygon fill="none" stroke="#0000ff" points="260,-160 260,-308.8 402,-308.8 402,-160 260,-160"/>
<text text-anchor="middle" x="331" y="-292.2" font-family="Times,serif" font-size="14.00" fill="#000000">Subflow: 2</text>
</g>
<g id="clust7" class="cluster">
<title>cluster_p0x110008118</title>
<polygon fill="none" stroke="#0000ff" points="24,-88 24,-341.6 244,-341.6 244,-88 24,-88"/>
<text text-anchor="middle" x="134" y="-325" font-family="Times,serif" font-size="14.00" fill="#000000">Subflow: 3</text>
</g>
<g id="clust8" class="cluster">
<title>cluster_p0x110008200</title>
<polygon fill="none" stroke="#0000ff" points="94,-160 94,-308.8 236,-308.8 236,-160 94,-160"/>
<text text-anchor="middle" x="165" y="-292.2" font-family="Times,serif" font-size="14.00" fill="#000000">Subflow: 2</text>
</g>
<!-- p0x108008030 -->
<g id="node1" class="node">
<title>p0x108008030</title>
<ellipse fill="none" stroke="#000000" cx="248" cy="-42" rx="27" ry="18"/>
<text text-anchor="middle" x="248" y="-37.8" font-family="Times,serif" font-size="14.00" fill="#000000">5</text>
</g>
<!-- p0x110008030 -->
<g id="node2" class="node">
<title>p0x110008030</title>
<ellipse fill="none" stroke="#000000" cx="331" cy="-114" rx="27" ry="18"/>
<text text-anchor="middle" x="331" y="-109.8" font-family="Times,serif" font-size="14.00" fill="#000000">4</text>
</g>
<!-- p0x110008030&#45;&gt;p0x108008030 -->
<g id="edge1" class="edge">
<title>p0x110008030-&gt;p0x108008030</title>
<path fill="none" stroke="#000000" d="M314.2037,-99.4297C302.2002,-89.017 285.8613,-74.8435 272.4189,-63.1827"/>
<polygon fill="#000000" stroke="#000000" points="274.3354,-60.2118 264.4881,-56.3029 269.7485,-65.4996 274.3354,-60.2118"/>
</g>
<!-- p0x1100085a0 -->
<g id="node3" class="node">
<title>p0x1100085a0</title>
<ellipse fill="none" stroke="#000000" cx="445" cy="-186" rx="27" ry="18"/>
<text text-anchor="middle" x="445" y="-181.8" font-family="Times,serif" font-size="14.00" fill="#000000">3</text>
</g>
<!-- p0x1100085a0&#45;&gt;p0x110008030 -->
<g id="edge2" class="edge">
<title>p0x1100085a0-&gt;p0x110008030</title>
<path fill="none" stroke="#000000" d="M426.0517,-173.1597C419.7104,-168.9182 412.5808,-164.2096 406,-160 390.9059,-150.3447 373.8972,-139.8794 359.8977,-131.3738"/>
<polygon fill="#000000" stroke="#000000" points="361.5497,-128.2824 351.183,-126.0956 357.9233,-134.2699 361.5497,-128.2824"/>
</g>
<!-- p0x110008940 -->
<g id="node4" class="node">
<title>p0x110008940</title>
<ellipse fill="none" stroke="#000000" cx="517" cy="-258" rx="27" ry="18"/>
<text text-anchor="middle" x="517" y="-253.8" font-family="Times,serif" font-size="14.00" fill="#000000">2</text>
</g>
<!-- p0x110008940&#45;&gt;p0x1100085a0 -->
<g id="edge3" class="edge">
<title>p0x110008940-&gt;p0x1100085a0</title>
<path fill="none" stroke="#000000" d="M501.7307,-242.7307C491.803,-232.803 478.6847,-219.6847 467.5637,-208.5637"/>
<polygon fill="#000000" stroke="#000000" points="469.7933,-205.8436 460.2473,-201.2473 464.8436,-210.7933 469.7933,-205.8436"/>
</g>
<!-- p0x110008b10 -->
<g id="node5" class="node">
<title>p0x110008b10</title>
<ellipse fill="none" stroke="#000000" cx="587" cy="-367.6" rx="27" ry="18"/>
<text text-anchor="middle" x="587" y="-363.4" font-family="Times,serif" font-size="14.00" fill="#000000">1</text>
</g>
<!-- p0x110008b10&#45;&gt;p0x110008940 -->
<g id="edge4" class="edge">
<title>p0x110008b10-&gt;p0x110008940</title>
<path fill="none" stroke="#000000" d="M576.3685,-350.9541C564.9077,-333.0097 546.5262,-304.2296 533.2507,-283.444"/>
<polygon fill="#000000" stroke="#000000" points="536.064,-281.3463 527.7315,-274.8025 530.1646,-285.1142 536.064,-281.3463"/>
</g>
<!-- p0x110008bf8 -->
<g id="node6" class="node">
<title>p0x110008bf8</title>
<ellipse fill="none" stroke="#000000" cx="515" cy="-367.6" rx="27" ry="18"/>
<text text-anchor="middle" x="515" y="-363.4" font-family="Times,serif" font-size="14.00" fill="#000000">0</text>
</g>
<!-- p0x110008bf8&#45;&gt;p0x110008940 -->
<g id="edge5" class="edge">
<title>p0x110008bf8-&gt;p0x110008940</title>
<path fill="none" stroke="#000000" d="M515.3303,-349.5018C515.6444,-332.2883 516.1217,-306.1333 516.4856,-286.1888"/>
<polygon fill="#000000" stroke="#000000" points="519.9861,-286.1873 516.6693,-276.1251 512.9873,-286.0595 519.9861,-286.1873"/>
</g>
<!-- p0x110008a28 -->
<g id="node7" class="node">
<title>p0x110008a28</title>
<ellipse fill="none" stroke="#000000" cx="445" cy="-258" rx="27" ry="18"/>
<text text-anchor="middle" x="445" y="-253.8" font-family="Times,serif" font-size="14.00" fill="#000000">1</text>
</g>
<!-- p0x110008a28&#45;&gt;p0x1100085a0 -->
<g id="edge6" class="edge">
<title>p0x110008a28-&gt;p0x1100085a0</title>
<path fill="none" stroke="#000000" d="M445,-239.8314C445,-232.131 445,-222.9743 445,-214.4166"/>
<polygon fill="#000000" stroke="#000000" points="448.5001,-214.4132 445,-204.4133 441.5001,-214.4133 448.5001,-214.4132"/>
</g>
<!-- p0x110008688 -->
<g id="node8" class="node">
<title>p0x110008688</title>
<ellipse fill="none" stroke="#000000" cx="331" cy="-186" rx="27" ry="18"/>
<text text-anchor="middle" x="331" y="-181.8" font-family="Times,serif" font-size="14.00" fill="#000000">2</text>
</g>
<!-- p0x110008688&#45;&gt;p0x110008030 -->
<g id="edge7" class="edge">
<title>p0x110008688-&gt;p0x110008030</title>
<path fill="none" stroke="#000000" d="M331,-167.8314C331,-160.131 331,-150.9743 331,-142.4166"/>
<polygon fill="#000000" stroke="#000000" points="334.5001,-142.4132 331,-132.4133 327.5001,-142.4133 334.5001,-142.4132"/>
</g>
<!-- p0x110008770 -->
<g id="node9" class="node">
<title>p0x110008770</title>
<ellipse fill="none" stroke="#000000" cx="367" cy="-258" rx="27" ry="18"/>
<text text-anchor="middle" x="367" y="-253.8" font-family="Times,serif" font-size="14.00" fill="#000000">1</text>
</g>
<!-- p0x110008770&#45;&gt;p0x110008688 -->
<g id="edge8" class="edge">
<title>p0x110008770-&gt;p0x110008688</title>
<path fill="none" stroke="#000000" d="M358.2854,-240.5708C354.0403,-232.0807 348.8464,-221.6929 344.1337,-212.2674"/>
<polygon fill="#000000" stroke="#000000" points="347.237,-210.6477 339.6343,-203.2687 340.976,-213.7782 347.237,-210.6477"/>
</g>
<!-- p0x110008858 -->
<g id="node10" class="node">
<title>p0x110008858</title>
<ellipse fill="none" stroke="#000000" cx="295" cy="-258" rx="27" ry="18"/>
<text text-anchor="middle" x="295" y="-253.8" font-family="Times,serif" font-size="14.00" fill="#000000">0</text>
</g>
<!-- p0x110008858&#45;&gt;p0x110008688 -->
<g id="edge9" class="edge">
<title>p0x110008858-&gt;p0x110008688</title>
<path fill="none" stroke="#000000" d="M303.7146,-240.5708C307.9597,-232.0807 313.1536,-221.6929 317.8663,-212.2674"/>
<polygon fill="#000000" stroke="#000000" points="321.024,-213.7782 322.3657,-203.2687 314.763,-210.6477 321.024,-213.7782"/>
</g>
<!-- p0x110008118 -->
<g id="node11" class="node">
<title>p0x110008118</title>
<ellipse fill="none" stroke="#000000" cx="166" cy="-114" rx="27" ry="18"/>
<text text-anchor="middle" x="166" y="-109.8" font-family="Times,serif" font-size="14.00" fill="#000000">3</text>
</g>
<!-- p0x110008118&#45;&gt;p0x108008030 -->
<g id="edge10" class="edge">
<title>p0x110008118-&gt;p0x108008030</title>
<path fill="none" stroke="#000000" d="M182.5939,-99.4297C194.3754,-89.0851 210.384,-75.0286 223.6145,-63.4116"/>
<polygon fill="#000000" stroke="#000000" points="226.2256,-65.7767 231.4308,-56.5486 221.607,-60.5166 226.2256,-65.7767"/>
</g>
<!-- p0x110008200 -->
<g id="node12" class="node">
<title>p0x110008200</title>
<ellipse fill="none" stroke="#000000" cx="166" cy="-186" rx="27" ry="18"/>
<text text-anchor="middle" x="166" y="-181.8" font-family="Times,serif" font-size="14.00" fill="#000000">2</text>
</g>
<!-- p0x110008200&#45;&gt;p0x110008118 -->
<g id="edge11" class="edge">
<title>p0x110008200-&gt;p0x110008118</title>
<path fill="none" stroke="#000000" d="M166,-167.8314C166,-160.131 166,-150.9743 166,-142.4166"/>
<polygon fill="#000000" stroke="#000000" points="169.5001,-142.4132 166,-132.4133 162.5001,-142.4133 169.5001,-142.4132"/>
</g>
<!-- p0x1100083d0 -->
<g id="node13" class="node">
<title>p0x1100083d0</title>
<ellipse fill="none" stroke="#000000" cx="201" cy="-258" rx="27" ry="18"/>
<text text-anchor="middle" x="201" y="-253.8" font-family="Times,serif" font-size="14.00" fill="#000000">1</text>
</g>
<!-- p0x1100083d0&#45;&gt;p0x110008200 -->
<g id="edge12" class="edge">
<title>p0x1100083d0-&gt;p0x110008200</title>
<path fill="none" stroke="#000000" d="M192.5275,-240.5708C188.4003,-232.0807 183.3507,-221.6929 178.7689,-212.2674"/>
<polygon fill="#000000" stroke="#000000" points="181.9143,-210.7322 174.3945,-203.2687 175.6187,-213.7926 181.9143,-210.7322"/>
</g>
<!-- p0x1100084b8 -->
<g id="node14" class="node">
<title>p0x1100084b8</title>
<ellipse fill="none" stroke="#000000" cx="129" cy="-258" rx="27" ry="18"/>
<text text-anchor="middle" x="129" y="-253.8" font-family="Times,serif" font-size="14.00" fill="#000000">0</text>
</g>
<!-- p0x1100084b8&#45;&gt;p0x110008200 -->
<g id="edge13" class="edge">
<title>p0x1100084b8-&gt;p0x110008200</title>
<path fill="none" stroke="#000000" d="M137.7685,-240.937C142.1279,-232.4537 147.4953,-222.0092 152.3753,-212.513"/>
<polygon fill="#000000" stroke="#000000" points="155.5797,-213.9348 157.0374,-203.4407 149.3537,-210.7352 155.5797,-213.9348"/>
</g>
<!-- p0x1100082e8 -->
<g id="node15" class="node">
<title>p0x1100082e8</title>
<ellipse fill="none" stroke="#000000" cx="59" cy="-186" rx="27" ry="18"/>
<text text-anchor="middle" x="59" y="-181.8" font-family="Times,serif" font-size="14.00" fill="#000000">1</text>
</g>
<!-- p0x1100082e8&#45;&gt;p0x110008118 -->
<g id="edge14" class="edge">
<title>p0x1100082e8-&gt;p0x110008118</title>
<path fill="none" stroke="#000000" d="M75.3559,-171.4818C79.9768,-167.603 85.0873,-163.5153 90,-160 104.7132,-149.4718 121.9001,-138.9337 136.2044,-130.6052"/>
<polygon fill="#000000" stroke="#000000" points="138.207,-133.4912 145.1331,-125.4736 134.7189,-127.4221 138.207,-133.4912"/>
</g>
</g>
</svg>