<?xml version="1.0" encoding="UTF-8" standalone="no"?><!DOCTYPE svg PUBLIC "-//W3C//DTD SVG 1.1//EN" "http://www.w3.org/Graphics/SVG/1.1/DTD/svg11.dtd"><!-- Generated by graphviz version 2.40.1 (20161225.0304)
 --><!-- Title: Taskflow Pages: 1 --><svg xmlns="http://www.w3.org/2000/svg" xmlns:xlink="http://www.w3.org/1999/xlink" width="178pt" height="317pt" viewBox="0.00 0.00 178.00 316.80">
<g id="graph0" class="graph" transform="scale(1 1) rotate(0) translate(4 312.8)">
<title>Taskflow</title>
<polygon fill="#ffffff" stroke="transparent" points="-4,4 -4,-312.8 174,-312.8 174,4 -4,4"/>
<g id="clust1" class="cluster">
<title>cluster_p0x16fdfeca8</title>
<polygon fill="none" stroke="#000000" points="8,-8 8,-300.8 162,-300.8 162,-8 8,-8"/>
<text text-anchor="middle" x="85" y="-284.2" font-family="Times,serif" font-size="14.00" fill="#000000">Taskflow: p0x16fdfec48</text>
</g>
<!-- p0x108008030 -->
<g id="node1" class="node">
<title>p0x108008030</title>
<ellipse fill="none" stroke="#000000" cx="85" cy="-178" rx="27" ry="18"/>
<text text-anchor="middle" x="85" y="-173.8" font-family="Times,serif" font-size="14.00" fill="#000000">A</text>
</g>
<!-- p0x108008118 -->
<g id="node2" class="node">
<title>p0x108008118</title>
<ellipse fill="none" stroke="#000000" cx="49" cy="-106" rx="27" ry="18"/>
<text text-anchor="middle" x="49" y="-101.8" font-family="Times,serif" font-size="14.00" fill="#000000">B</text>
</g>
<!-- p0x108008030&#45;&gt;p0x108008118 -->
<g id="edge1" class="edge">
<title>p0x108008030-&gt;p0x108008118</title>
<path fill="none" stroke="#000000" d="M76.2854,-160.5708C72.0403,-152.0807 66.8464,-141.6929 62.1337,-132.2674"/>
<polygon fill="#000000" stroke="#000000" points="65.237,-130.6477 57.6343,-123.2687 58.976,-133.7782 65.237,-130.6477"/>
</g>
<!-- p0x108008200 -->
<g id="node3" class="node">
<title>p0x108008200</title>
<ellipse fill="none" stroke="#000000" cx="121" cy="-106" rx="27" ry="18"/>
<text text-anchor="middle" x="121" y="-101.8" font-family="Times,serif" font-size="14.00" fill="#000000">C</text>
</g>
<!-- p0x108008030&#45;&gt;p0x108008200 -->
<g id="edge2" class="edge">
<title>p0x108008030-&gt;p0x108008200</title>
<path fill="none" stroke="#000000" d="M93.7146,-160.5708C97.9597,-152.0807 103.1536,-141.6929 107.8663,-132.2674"/>
<polygon fill="#000000" stroke="#000000" points="111.024,-133.7782 112.3657,-123.2687 104.763,-130.6477 111.024,-133.7782"/>
</g>
<!-- p0x1080082e8 -->
<g id="node4" class="node">
<title>p0x1080082e8</title>
<ellipse fill="none" stroke="#000000" cx="85" cy="-34" rx="27" ry="18"/>
<text text-anchor="middle" x="85" y="-29.8" font-family="Times,serif" font-size="14.00" fill="#000000">D</text>
</g>
<!-- p0x108008118&#45;&gt;p0x1080082e8 -->
<g id="edge3" class="edge">
<title>p0x108008118-&gt;p0x1080082e8</title>
<path fill="none" stroke="#000000" d="M57.7146,-88.5708C61.9597,-80.0807 67.1536,-69.6929 71.8663,-60.2674"/>
<polygon fill="#000000" stroke="#000000" points="75.024,-61.7782 76.3657,-51.2687 68.763,-58.6477 75.024,-61.7782"/>
</g>
<!-- p0x108008200&#45;&gt;p0x1080082e8 -->
<g id="edge4" class="edge">
<title>p0x108008200-&gt;p0x1080082e8</title>
<path fill="none" stroke="#000000" d="M112.2854,-88.5708C108.0403,-80.0807 102.8464,-69.6929 98.1337,-60.2674"/>
<polygon fill="#000000" stroke="#000000" points="101.237,-58.6477 93.6343,-51.2687 94.976,-61.7782 101.237,-58.6477"/>
</g>
<!-- p0x1080083d0 -->
<g id="node5" class="node">
<title>p0x1080083d0</title>
<ellipse fill="none" stroke="#000000" cx="85" cy="-250" rx="41.1922" ry="18"/>
<text text-anchor="middle" x="85" y="-245.8" font-family="Times,serif" font-size="14.00" fill="#000000">my task</text>
</g>
<!-- p0x1080083d0&#45;&gt;p0x108008030 -->
<g id="edge5" class="edge">
<title>p0x1080083d0-&gt;p0x108008030</title>
<path fill="none" stroke="#000000" d="M85,-231.8314C85,-224.131 85,-214.9743 85,-206.4166"/>
<polygon fill="#000000" stroke="#000000" points="88.5001,-206.4132 85,-196.4133 81.5001,-206.4133 88.5001,-206.4132"/>
</g>
</g>
</svg>